<svg width="25" height="25" viewBox="0 0 25 25" fill="none" xmlns="http://www.w3.org/2000/svg">
<path d="M24.0156 3.49652H4.25762L4.21562 3.14552C4.12967 2.41594 3.77901 1.74326 3.23011 1.25499C2.68122 0.766744 1.97225 0.496863 1.23762 0.496521H0.015625V2.49652H1.23762C1.48255 2.49655 1.71896 2.58648 1.90199 2.74924C2.08503 2.912 2.20196 3.13627 2.23062 3.37953L3.81562 16.8475C3.90157 17.5771 4.25224 18.2498 4.80113 18.738C5.35003 19.2263 6.05899 19.4962 6.79362 19.4965H20.0156V17.4965H6.79362C6.54853 17.4965 6.312 17.4064 6.12895 17.2434C5.94589 17.0805 5.82905 16.8559 5.80062 16.6125L5.66962 15.4965H21.8516L24.0156 3.49652ZM20.1796 13.4965H5.43462L4.49362 5.49652H21.6226L20.1796 13.4965Z" fill="#253D4E"/>
<path d="M7.01562 24.4965C8.12019 24.4965 9.01562 23.6011 9.01562 22.4965C9.01562 21.3919 8.12019 20.4965 7.01562 20.4965C5.91105 20.4965 5.01562 21.3919 5.01562 22.4965C5.01562 23.6011 5.91105 24.4965 7.01562 24.4965Z" fill="#253D4E"/>
<path d="M17.0156 24.4965C18.1202 24.4965 19.0156 23.6011 19.0156 22.4965C19.0156 21.3919 18.1202 20.4965 17.0156 20.4965C15.9111 20.4965 15.0156 21.3919 15.0156 22.4965C15.0156 23.6011 15.9111 24.4965 17.0156 24.4965Z" fill="#253D4E"/>
</svg>
